<svg width="34" height="34" viewBox="0 0 34 34" fill="none" xmlns="http://www.w3.org/2000/svg">
<rect width="34" height="34" rx="17" fill="black"/>
<path d="M33.0405 16.3265C33.0405 15.6587 32.9692 14.9988 32.8243 14.3468C32.8176 14.2727 32.817 14.198 32.803 14.125C32.3672 11.8257 31.4691 9.72186 30.119 7.81235C29.3614 6.7419 28.501 5.76244 27.485 4.92731C27.4182 4.86329 27.3547 4.79533 27.2839 4.73692C24.4719 2.41855 21.2488 1.16558 17.6044 1.0145C16.5862 0.97238 15.5702 1.01731 14.5655 1.21163C14.4818 1.21837 14.397 1.21837 14.315 1.23353C12.1696 1.63846 10.154 2.38092 8.33263 3.59964C4.43217 6.20893 2.01889 9.81958 1.22701 14.4479C0.693467 17.5666 1.10345 20.592 2.42494 23.4877C5.42175 30.0542 12.6161 34.3888 20.4086 32.5916C26.656 31.1505 30.6756 27.181 32.5306 21.0452C32.9945 19.5109 33.1197 17.9266 33.0405 16.3265ZM31.3596 20.7083C29.6618 26.174 26.1444 29.9076 20.5563 31.2679C14.329 32.7831 9.17786 30.7495 5.23417 25.7376C3.19043 23.1407 2.15761 20.1405 2.21827 16.8224C2.29409 12.6973 3.90425 9.21303 6.85725 6.36225C8.85774 4.43084 11.2368 3.15933 13.9623 2.5584C13.9977 2.55053 14.0303 2.53144 14.0645 2.5174C14.0802 2.532 14.0965 2.54323 14.1134 2.55166C14.1285 2.53256 14.1448 2.51627 14.1622 2.50392C14.8328 2.41294 15.5006 2.29612 16.1779 2.25961C20.0301 2.05518 23.4312 3.21212 26.4157 5.63944C27.3777 6.42178 28.2331 7.31588 28.952 8.31332C30.4335 10.3711 31.4495 12.6367 31.7606 15.1847C31.8729 16.1013 31.8875 17.0184 31.8606 17.9384H31.8589C31.8589 17.9384 31.8538 17.9412 31.851 17.9434C31.8538 17.9474 31.8566 17.9513 31.86 17.9547C31.7584 18.8847 31.6382 19.8125 31.3596 20.7083Z" fill="white"/>
<path d="M29.4877 16.8247C25.4042 12.7731 21.3184 8.72386 17.2388 4.6684C17.0815 4.51227 17.004 4.48531 16.8299 4.65942C13.8461 7.64106 10.8543 10.6148 7.86367 13.5903C6.78368 14.6647 5.702 15.7379 4.62088 16.8118C4.49227 16.8932 4.38668 16.978 4.57482 17.1083C4.7405 17.2661 4.90618 17.4234 5.07186 17.5812C5.14712 17.6632 5.219 17.7485 5.29763 17.8272C9.129 21.6383 12.9632 25.4478 16.7895 29.2651C16.9782 29.4533 17.0692 29.4909 17.2809 29.2786C19.4724 27.0804 21.679 24.8968 23.8788 22.7065C24.7859 21.8034 25.6856 20.8936 26.5887 19.9866C27.576 19.0178 28.5616 18.0473 29.5523 17.0825C29.6978 16.9404 29.5557 16.8926 29.4877 16.8247ZM17.6437 26.9821V24.4021C17.6426 23.4759 17.6426 22.5493 17.6415 21.6232V21.6024C17.6409 21.1233 17.6409 20.6448 17.6398 20.1663V20.1461C17.6392 19.6142 17.6387 19.0824 17.6375 18.5505V18.5449C17.6375 18.3309 17.637 18.1175 17.6364 17.9035V17.8805C17.6364 17.7396 17.6426 17.6547 17.8465 17.6553C19.8419 17.6615 21.8373 17.6626 23.8322 17.6632H23.8491C24.8403 17.6632 25.8316 17.6632 26.8228 17.6637C26.8577 17.6637 26.8925 17.6699 26.9902 17.6783C23.8895 20.8088 20.7995 23.8797 17.6437 26.9821ZM17.646 7.0581C17.7707 7.09572 17.8364 7.18727 17.9116 7.26084C18.9343 8.26277 19.9554 9.26695 20.9775 10.2694C21.0438 10.3346 21.1157 10.3936 21.1847 10.4553C21.2179 10.4879 21.251 10.5199 21.2842 10.5519C21.4038 10.7025 21.538 10.8389 21.6924 10.9541C21.711 11.0035 21.7447 11.0377 21.7947 11.0551C21.8199 11.1119 21.8604 11.1529 21.9177 11.1765C22.3759 11.6415 22.8297 12.1104 23.2925 12.571C24.2916 13.5639 25.2952 14.5529 26.2966 15.5431C26.3185 15.5992 26.3573 15.6391 26.4134 15.661C26.432 15.7138 26.4673 15.7497 26.5201 15.7683C26.542 15.825 26.5808 15.8643 26.6375 15.8862C26.6566 15.9384 26.692 15.9738 26.7442 15.9929C26.806 16.071 26.8678 16.1485 26.9284 16.2249C26.8689 16.2996 26.7981 16.2675 26.7386 16.2675C23.8098 16.2681 20.8803 16.2642 17.9515 16.2704C17.7201 16.2709 17.6359 16.2383 17.637 15.9733C17.6415 14.4895 17.642 13.0051 17.6409 11.5213V11.5056C17.6449 11.3017 17.6493 11.1001 17.6595 10.8962C17.6684 10.7058 17.6538 10.5132 17.6404 10.32V10.3048C17.6392 9.27425 17.6376 8.24424 17.637 7.21367C17.637 7.16874 17.642 7.12324 17.646 7.0581ZM16.3059 7.162C16.3408 7.22658 16.3531 7.30072 16.3498 7.38945C16.3481 7.4327 16.3453 7.49111 16.3593 7.53604V8.16C16.3172 8.22851 16.3492 8.3268 16.3492 8.40093C16.343 10.9462 16.3441 13.4915 16.3441 16.0367C16.3441 16.0783 16.3464 16.1193 16.3514 16.1586C16.334 16.2305 16.2835 16.2732 16.138 16.2726C13.2109 16.2636 10.2837 16.2664 7.35597 16.2664H7.14311C10.2006 13.196 13.2142 10.1852 16.3059 7.162ZM16.3604 26.78C16.3604 26.8047 16.352 26.8288 16.3391 26.9035C13.2255 23.8545 10.177 20.7914 7.09032 17.6609H8.71677C11.1767 17.6609 13.6371 17.662 16.0976 17.6592C16.2627 17.6592 16.3672 17.6525 16.3666 17.8833C16.3576 20.8487 16.361 23.814 16.3604 26.78Z" fill="white"/>
<path d="M12.5802 26.5401C11.9725 26.5424 11.3643 26.5463 10.7566 26.5328C8.90435 26.4907 7.57444 25.1468 7.55141 23.2973C7.54411 22.6897 7.54917 22.082 7.54692 21.4738C7.54692 21.3828 7.56489 21.2862 7.48739 21.2104C7.12907 20.861 6.77244 20.5111 6.37313 20.1203C6.42255 21.3036 6.34505 22.4257 6.42031 23.5473C6.577 25.8729 8.32645 27.5937 10.6538 27.6662C11.7096 27.6988 12.7672 27.6757 13.8241 27.6769C13.8657 27.6769 13.9191 27.6926 13.946 27.6241C13.6102 27.3068 13.2693 26.9894 12.9345 26.6654C12.8318 26.5654 12.7183 26.5396 12.5802 26.5401Z" fill="white"/>
<path d="M21.5155 7.46415C22.1052 7.45741 22.6944 7.4546 23.2835 7.46639C24.9673 7.49897 26.3612 8.76149 26.5443 10.4368C26.6173 11.1068 26.5578 11.783 26.5679 12.4558C26.569 12.5479 26.537 12.6496 26.6004 12.7288C26.9329 13.1388 27.3204 13.4937 27.7186 13.852C27.704 12.6159 27.8304 11.391 27.6456 10.1762C27.3474 8.21166 25.8215 6.64531 23.9434 6.39763C22.6899 6.23195 21.4268 6.37292 20.1682 6.32013C20.4911 6.66215 20.7978 6.97779 21.0932 7.30296C21.2123 7.43382 21.3465 7.46639 21.5155 7.46415Z" fill="white"/>
<path d="M7.40034 12.8259C7.51322 12.7097 7.5486 12.5833 7.5458 12.4238C7.53625 11.8908 7.53569 11.3579 7.53962 10.8249C7.55478 8.91313 8.94928 7.50122 10.8627 7.46583C11.4423 7.45572 12.0219 7.46752 12.6015 7.46696C12.6846 7.46696 12.8003 7.48718 12.8458 7.44281C13.2109 7.08056 13.563 6.70596 13.9112 6.34203C12.8087 6.34203 11.695 6.29486 10.5864 6.35214C8.39159 6.46615 6.65844 8.15775 6.43042 10.3458C6.31023 11.5022 6.40908 12.6625 6.42536 13.8554C6.74998 13.5117 7.07123 13.1652 7.40034 12.8259Z" fill="white"/>
<path d="M27.7119 22.023C27.7214 21.403 27.7141 20.783 27.7141 20.0927C27.3581 20.4595 27.0233 20.7498 26.7425 21.0947C26.5802 21.1924 26.5415 21.3395 26.5409 21.5226C26.5398 22.2803 26.6128 23.0435 26.51 23.7944C26.2977 25.3461 25.0375 26.4649 23.4554 26.53C22.7921 26.5576 22.1271 26.5357 21.4627 26.5368C21.3617 26.5373 21.26 26.5194 21.1752 26.6075C20.8354 26.9597 20.4911 27.3079 20.1165 27.6903C21.3869 27.6589 22.6191 27.7386 23.8496 27.6364C24.0164 27.6229 24.1832 27.5881 24.3467 27.5511C26.1826 27.1327 27.6344 25.4152 27.6563 23.6388C27.667 23.613 27.6782 23.5883 27.6782 23.5591V23.5119C27.754 23.0177 27.7046 22.5189 27.7119 22.023Z" fill="white"/>
</svg>
